<?xml version="1.0" encoding="UTF-8"?>
<svg id="f" data-name="logo" xmlns="http://www.w3.org/2000/svg" width="339.195" height="195.645" viewBox="0 0 339.195 195.645">
  <g>
    <path d="M5.125,8.112L-.023,0H3.421l3.195,5.376L9.87,0h3.349l-5.147,8.055v5.339h-2.947v-5.281Z"/>
    <path d="M18.69-.096h2.717l5.741,13.489h-3.081l-1.225-3.004h-5.664l-1.225,3.004h-3.004L18.69-.096Zm3.1,7.883l-1.779-4.344-1.78,4.344h3.559Z"/>
    <path d="M30.304,0h3.176l3.521,5.663,3.521-5.663h3.176V13.394h-2.928V4.648l-3.77,5.722h-.076l-3.731-5.663V13.394h-2.889V0Z"/>
    <path d="M52.595-.096h2.717l5.741,13.489h-3.081l-1.225-3.004h-5.664l-1.225,3.004h-3.004L52.595-.096Zm3.1,7.883l-1.779-4.344-1.78,4.344h3.559Z"/>
    <path d="M63.386,11.441l1.741-2.086c1.206,.996,2.468,1.627,3.999,1.627,1.206,0,1.933-.479,1.933-1.263v-.038c0-.746-.459-1.129-2.698-1.703-2.698-.689-4.439-1.436-4.439-4.095v-.038c0-2.43,1.952-4.037,4.688-4.037,1.952,0,3.616,.611,4.975,1.703l-1.531,2.219c-1.187-.822-2.354-1.32-3.482-1.32s-1.722,.517-1.722,1.168v.037c0,.881,.574,1.168,2.889,1.761,2.717,.708,4.248,1.685,4.248,4.019v.038c0,2.659-2.028,4.152-4.918,4.152-2.028,0-4.075-.708-5.683-2.144Z"/>
    <path d="M78.181,0h2.947V5.3h5.434V0h2.947V13.394h-2.947v-5.377h-5.434v5.377h-2.947V0Z"/>
    <path d="M94.471,0h2.947V13.394h-2.947V0Z"/>
    <path d="M105.146,2.717h-4.076V0h11.098V2.717h-4.076V13.394h-2.947V2.717Z"/>
    <path d="M118.482-.096h2.717l5.741,13.489h-3.081l-1.225-3.004h-5.664l-1.225,3.004h-3.004L118.482-.096Zm3.1,7.883l-1.779-4.344-1.78,4.344h3.559Z"/>
    <path d="M1.068,23.917h2.947v5.3h5.434v-5.3h2.947v13.394h-2.947v-5.377H4.015v5.377H1.068v-13.394Z"/>
    <path d="M16.049,30.652v-.039c0-3.807,3.004-6.926,7.137-6.926s7.099,3.08,7.099,6.889v.037c0,3.809-3.004,6.928-7.137,6.928s-7.099-3.081-7.099-6.889Zm11.155,0v-.039c0-2.295-1.684-4.209-4.057-4.209s-4.018,1.875-4.018,4.172v.037c0,2.297,1.684,4.211,4.057,4.211s4.018-1.876,4.018-4.172Z"/>
    <path d="M33.901,31.57v-7.653h2.947v7.577c0,2.182,1.09,3.311,2.889,3.311s2.889-1.091,2.889-3.215v-7.673h2.947v7.558c0,4.057-2.277,6.047-5.875,6.047s-5.797-2.01-5.797-5.951Z"/>
    <path d="M49.017,35.359l1.741-2.086c1.206,.995,2.468,1.627,3.999,1.627,1.206,0,1.933-.479,1.933-1.264v-.037c0-.747-.459-1.129-2.698-1.703-2.698-.689-4.439-1.436-4.439-4.096v-.038c0-2.43,1.952-4.037,4.688-4.037,1.952,0,3.616,.612,4.975,1.703l-1.531,2.22c-1.187-.823-2.354-1.32-3.482-1.32s-1.722,.516-1.722,1.167v.038c0,.881,.574,1.168,2.889,1.76,2.717,.709,4.248,1.685,4.248,4.02v.037c0,2.66-2.028,4.152-4.918,4.152-2.028,0-4.075-.707-5.683-2.143Z"/>
    <path d="M63.616,23.917h10.103v2.621h-7.176v2.718h6.314v2.621h-6.314v2.812h7.271v2.621h-10.199v-13.394Z"/>
    <path d="M.283,54.569v-.038c0-3.809,2.87-6.927,6.984-6.927,2.526,0,4.038,.842,5.281,2.066l-1.875,2.162c-1.033-.938-2.086-1.512-3.425-1.512-2.258,0-3.884,1.875-3.884,4.171v.039c0,2.296,1.588,4.209,3.884,4.209,1.531,0,2.468-.611,3.521-1.568l1.875,1.895c-1.377,1.473-2.908,2.391-5.492,2.391-3.941,0-6.869-3.042-6.869-6.888Z"/>
    <path d="M15.227,54.569v-.038c0-3.809,3.004-6.927,7.137-6.927s7.099,3.081,7.099,6.888v.039c0,3.808-3.004,6.926-7.137,6.926s-7.099-3.08-7.099-6.888Zm11.155,0v-.038c0-2.297-1.684-4.21-4.056-4.21s-4.019,1.875-4.019,4.171v.039c0,2.296,1.684,4.209,4.057,4.209s4.018-1.875,4.018-4.171Z"/>
    <path d="M32.887,47.834h2.717l6.276,8.247v-8.247h2.908v13.395h-2.506l-6.487-8.516v8.516h-2.908v-13.395Z"/>
    <path d="M48.539,59.276l1.741-2.086c1.206,.995,2.468,1.626,3.999,1.626,1.206,0,1.933-.478,1.933-1.262v-.039c0-.746-.459-1.129-2.698-1.703-2.698-.688-4.439-1.435-4.439-4.094v-.039c0-2.43,1.952-4.037,4.688-4.037,1.952,0,3.616,.612,4.975,1.703l-1.531,2.219c-1.187-.822-2.354-1.32-3.482-1.32s-1.722,.518-1.722,1.168v.038c0,.88,.574,1.167,2.889,1.761,2.717,.707,4.248,1.684,4.248,4.018v.039c0,2.659-2.028,4.152-4.918,4.152-2.028,0-4.075-.709-5.683-2.144Z"/>
    <path d="M66.306,50.551h-4.076v-2.717h11.098v2.717h-4.076v10.678h-2.947v-10.678Z"/>
    <path d="M76.944,47.834h6.123c1.703,0,3.023,.479,3.903,1.358,.746,.746,1.148,1.799,1.148,3.062v.038c0,2.163-1.167,3.521-2.87,4.152l3.272,4.784h-3.444l-2.87-4.287h-2.315v4.287h-2.947v-13.395Zm5.932,6.506c1.435,0,2.258-.766,2.258-1.895v-.038c0-1.263-.88-1.913-2.315-1.913h-2.927v3.846h2.985Z"/>
    <path d="M91.754,55.488v-7.654h2.947v7.577c0,2.181,1.09,3.31,2.889,3.31s2.889-1.09,2.889-3.214v-7.673h2.947v7.559c0,4.057-2.277,6.046-5.875,6.046s-5.797-2.009-5.797-5.95Z"/>
    <path d="M106.64,54.569v-.038c0-3.809,2.87-6.927,6.984-6.927,2.526,0,4.038,.842,5.281,2.066l-1.875,2.162c-1.033-.938-2.086-1.512-3.425-1.512-2.258,0-3.884,1.875-3.884,4.171v.039c0,2.296,1.588,4.209,3.884,4.209,1.531,0,2.468-.611,3.521-1.568l1.875,1.895c-1.377,1.473-2.908,2.391-5.492,2.391-3.941,0-6.869-3.042-6.869-6.888Z"/>
    <path d="M125.64,50.551h-4.076v-2.717h11.098v2.717h-4.076v10.678h-2.947v-10.678Z"/>
    <path d="M136.335,47.834h2.947v13.395h-2.947v-13.395Z"/>
    <path d="M142.955,54.569v-.038c0-3.809,3.004-6.927,7.137-6.927s7.099,3.081,7.099,6.888v.039c0,3.808-3.004,6.926-7.137,6.926s-7.099-3.08-7.099-6.888Zm11.155,0v-.038c0-2.297-1.684-4.21-4.056-4.21s-4.019,1.875-4.019,4.171v.039c0,2.296,1.684,4.209,4.057,4.209s4.018-1.875,4.018-4.171Z"/>
    <path d="M160.233,47.834h2.717l6.276,8.247v-8.247h2.908v13.395h-2.506l-6.487-8.516v8.516h-2.908v-13.395Z"/>
  </g>
  <g>
    <polygon points="109.792 195.236 105.54 195.236 105.54 157.612 106.603 156.998 337.069 23.935 339.195 27.617 109.792 160.067 109.792 195.236"/>
    <rect x="52.238" y="66.546" width="4.253" height="123.077" transform="translate(-83.746 111.159) rotate(-60.015)"/>
  </g>
  <g>
    <path d="M335.858,170.943v-3.323h-10.069v-3.355s-3.59,0-3.59,0l-.002,3.355h-12.033l.01,.577c0,.058,.103,5.729,.103,8.488,0,8.972-1.698,12.944-3.591,16.543l-.271,.515,3.417,1.686,.25-.513c2.628-5.403,3.853-11.399,3.853-18.871v-5.102h8.363v11.109h-7.207l.002,13.183h3.493l-.002-1.289h12.639v1.289h3.592v-13.183h-9.025v-3.855h10.069v-3.391h-10.069v-3.852l10.069-.012Zm-17.276,19.645v-5.211h12.64v5.211h-12.64Z"/>
    <path d="M295.571,181.339l.387,.147,1.437-3.124-.474-.153c-2.559-.832-3.877-1.511-5.435-2.538,1.275-1.641,1.988-3.036,2.584-5.046h2.549v-3.009h-10.471c.304-.541,.71-1.294,1.141-2.207l.231-.49-3.349-.817-.136,.372c-.495,1.353-2.137,4.484-5.153,7.645l-.379,.397,2.94,1.796,.247-.252c.468-.479,1.436-1.64,2.343-2.943,.63,1.309,1.606,2.998,3.042,4.697-1.645,1.271-3.672,2.275-6.337,3.141l-.147,.048c.383-.56,.784-1.165,1.246-1.884l.185-.288-1.172-1.271h-5.428l1.111-1.297-.333-.288s-.311-.269-.907-.792c2.241-2.041,3.582-3.469,5.09-5.192l.225-.257-1.097-1.623h-12.802v3.008h8.496c-1.02,1.01-1.848,1.804-2.438,2.336-.892-.704-1.92-1.533-1.92-1.533l-.368-.297-1.756,2.493,.364,.254c.93,.652,2.528,2.003,3.798,3.188h-6.176v3.009h4.745c-2.211,4.899-4.337,7.795-5.959,9.783l-.301,.37,2.75,1.924,.26-.321c1.408-1.745,2.634-3.609,3.961-6.04l.002,6.937c0,.349,0,.601-.702,.601-.506,0-1.755,.01-1.755,.01l-.506,.005,.479,3.398h1.176c2.819,0,4.451-.492,4.451-3.003l-.002-10.883,2.502,1.465,.237-.314c.895-1.186,1.576-2.096,2.312-3.158l1.459,2.804,.839-.392c1.192-.555,2.351-1.097,3.478-1.716v.044c-.033,.947-.067,2.012-.301,3.438h-7.911v3.008h7.191c-1.301,3.069-3.2,4.906-6.42,6.255l-.609,.255,2.608,2.607,.283-.136c4.699-2.254,6.515-5.938,7.539-8.981h4.535c-.119,1.733-.348,3.312-.51,3.854-.369,1.257-1.739,1.354-2.15,1.354h-2.367l.344,3.483,.857-.007c5.239-.039,6.639-.492,7.366-11.22l.032-.474h-7.42c.103-.551,.206-1.154,.305-1.738,.112-.66,.202-1.243,.202-1.243l.067-.433-2.91-.484c.797-.472,1.576-.994,2.337-1.603,1.592,1.185,3.837,2.355,6.371,3.319Zm-20.266-.42v-2.351s1.776,0,1.776,0c-.537,.768-.958,1.327-1.69,2.243l-.086,.107Zm15.348-10.294c-.57,1.54-1.096,2.368-1.493,2.894-.453-.493-1.097-1.315-1.889-2.894h3.382Z"/>
    <polygon points="181.529 169.705 195.285 169.705 195.285 195.231 198.979 195.231 198.979 177.592 207.055 184.051 209.55 181.394 198.979 173.237 198.979 169.705 212.735 169.705 212.735 166.111 181.529 166.111 181.529 169.705"/>
    <polygon points="167 189.048 158.378 189.048 158.37 164.267 154.677 164.267 154.684 189.018 146.044 189.018 146.037 169.699 142.377 169.699 142.376 195.226 146.034 195.226 146.044 192.645 167 192.645 167 195.231 170.685 195.231 170.686 169.699 166.992 169.699 167 189.048"/>
    <polygon points="240.735 169.704 252.05 169.704 252.05 166.111 225.793 166.111 225.793 169.704 236.974 169.704 236.974 189.046 223.319 189.046 223.319 192.64 254.525 192.64 254.525 189.046 240.735 189.046 240.735 169.704"/>
  </g>
</svg>