<?xml version="1.0" encoding="UTF-8"?>
<svg id="f" data-name="logo" xmlns="http://www.w3.org/2000/svg" width="452.467" height="304.729" viewBox="0 0 452.467 304.729">
  <g>
    <path d="M64.062,299.448l-5.147-8.112h3.444l3.195,5.376,3.253-5.376h3.349l-5.147,8.056v5.338h-2.946v-5.281Z"/>
    <path d="M77.627,291.24h2.717l5.741,13.489h-3.081l-1.225-3.004h-5.664l-1.225,3.004h-3.004l5.74-13.489Zm3.1,7.884l-1.779-4.344-1.779,4.344h3.559Z"/>
    <path d="M89.242,291.335h3.176l3.521,5.663,3.521-5.663h3.176v13.394h-2.928v-8.744l-3.77,5.721h-.076l-3.731-5.663v8.687h-2.889v-13.394Z"/>
    <path d="M111.533,291.24h2.717l5.74,13.489h-3.081l-1.225-3.004h-5.663l-1.225,3.004h-3.004l5.74-13.489Zm3.1,7.884l-1.779-4.344-1.78,4.344h3.56Z"/>
    <path d="M122.324,302.778l1.741-2.086c1.205,.995,2.468,1.627,3.999,1.627,1.205,0,1.933-.479,1.933-1.264v-.037c0-.747-.46-1.129-2.698-1.703-2.698-.689-4.439-1.436-4.439-4.096v-.038c0-2.43,1.952-4.037,4.688-4.037,1.951,0,3.616,.612,4.975,1.703l-1.53,2.22c-1.187-.823-2.354-1.32-3.482-1.32s-1.723,.516-1.723,1.167v.038c0,.881,.574,1.168,2.89,1.76,2.717,.709,4.248,1.685,4.248,4.02v.037c0,2.66-2.028,4.152-4.918,4.152-2.028,0-4.075-.707-5.683-2.143Z"/>
    <path d="M137.118,291.335h2.947v5.3h5.434v-5.3h2.947v13.394h-2.947v-5.377h-5.434v5.377h-2.947v-13.394Z"/>
    <path d="M153.408,291.335h2.947v13.394h-2.947v-13.394Z"/>
    <path d="M164.083,294.052h-4.075v-2.717h11.098v2.717h-4.075v10.677h-2.947v-10.677Z"/>
    <path d="M177.419,291.24h2.717l5.74,13.489h-3.081l-1.225-3.004h-5.663l-1.225,3.004h-3.004l5.74-13.489Zm3.1,7.884l-1.779-4.344-1.78,4.344h3.56Z"/>
    <path d="M196.744,291.335h2.946v5.3h5.435v-5.3h2.946v13.394h-2.946v-5.377h-5.435v5.377h-2.946v-13.394Z"/>
    <path d="M211.725,298.071v-.039c0-3.807,3.004-6.926,7.137-6.926s7.099,3.08,7.099,6.889v.037c0,3.809-3.004,6.928-7.137,6.928s-7.099-3.081-7.099-6.889Zm11.155,0v-.039c0-2.295-1.684-4.209-4.057-4.209s-4.019,1.875-4.019,4.172v.037c0,2.297,1.685,4.211,4.057,4.211s4.019-1.876,4.019-4.172Z"/>
    <path d="M229.577,298.989v-7.653h2.947v7.577c0,2.182,1.09,3.311,2.889,3.311s2.89-1.091,2.89-3.215v-7.673h2.946v7.558c0,4.057-2.276,6.047-5.874,6.047s-5.798-2.01-5.798-5.951Z"/>
    <path d="M244.693,302.778l1.741-2.086c1.205,.995,2.468,1.627,3.999,1.627,1.205,0,1.933-.479,1.933-1.264v-.037c0-.747-.46-1.129-2.698-1.703-2.698-.689-4.439-1.436-4.439-4.096v-.038c0-2.43,1.952-4.037,4.688-4.037,1.951,0,3.616,.612,4.975,1.703l-1.53,2.22c-1.187-.823-2.354-1.32-3.482-1.32s-1.723,.516-1.723,1.167v.038c0,.881,.574,1.168,2.89,1.76,2.717,.709,4.248,1.685,4.248,4.02v.037c0,2.66-2.028,4.152-4.918,4.152-2.028,0-4.075-.707-5.683-2.143Z"/>
    <path d="M259.291,291.335h10.104v2.621h-7.176v2.718h6.314v2.621h-6.314v2.812h7.271v2.621h-10.199v-13.394Z"/>
    <path d="M279.554,298.071v-.039c0-3.807,2.87-6.926,6.984-6.926,2.525,0,4.037,.842,5.281,2.066l-1.875,2.162c-1.033-.938-2.086-1.512-3.426-1.512-2.258,0-3.884,1.875-3.884,4.172v.037c0,2.297,1.588,4.211,3.884,4.211,1.531,0,2.469-.613,3.521-1.57l1.875,1.895c-1.378,1.474-2.908,2.393-5.492,2.393-3.941,0-6.869-3.043-6.869-6.889Z"/>
    <path d="M294.498,298.071v-.039c0-3.807,3.004-6.926,7.138-6.926s7.099,3.08,7.099,6.889v.037c0,3.809-3.004,6.928-7.137,6.928s-7.1-3.081-7.1-6.889Zm11.155,0v-.039c0-2.295-1.684-4.209-4.056-4.209s-4.019,1.875-4.019,4.172v.037c0,2.297,1.684,4.211,4.057,4.211s4.018-1.876,4.018-4.172Z"/>
    <path d="M312.158,291.335h2.717l6.276,8.247v-8.247h2.908v13.394h-2.506l-6.487-8.514v8.514h-2.908v-13.394Z"/>
    <path d="M327.81,302.778l1.741-2.086c1.205,.995,2.468,1.627,3.999,1.627,1.205,0,1.933-.479,1.933-1.264v-.037c0-.747-.46-1.129-2.698-1.703-2.698-.689-4.439-1.436-4.439-4.096v-.038c0-2.43,1.952-4.037,4.688-4.037,1.951,0,3.616,.612,4.975,1.703l-1.53,2.22c-1.187-.823-2.354-1.32-3.482-1.32s-1.723,.516-1.723,1.167v.038c0,.881,.574,1.168,2.89,1.76,2.717,.709,4.248,1.685,4.248,4.02v.037c0,2.66-2.028,4.152-4.918,4.152-2.028,0-4.075-.707-5.683-2.143Z"/>
    <path d="M345.577,294.052h-4.075v-2.717h11.098v2.717h-4.075v10.677h-2.947v-10.677Z"/>
    <path d="M356.215,291.335h6.123c1.703,0,3.023,.478,3.903,1.358,.746,.746,1.148,1.799,1.148,3.062v.038c0,2.162-1.167,3.521-2.87,4.152l3.271,4.783h-3.444l-2.87-4.285h-2.314v4.285h-2.947v-13.394Zm5.932,6.505c1.436,0,2.258-.765,2.258-1.894v-.038c0-1.264-.88-1.914-2.315-1.914h-2.927v3.846h2.984Z"/>
    <path d="M371.025,298.989v-7.653h2.946v7.577c0,2.182,1.091,3.311,2.89,3.311s2.889-1.091,2.889-3.215v-7.673h2.947v7.558c0,4.057-2.277,6.047-5.874,6.047s-5.798-2.01-5.798-5.951Z"/>
    <path d="M385.911,298.071v-.039c0-3.807,2.87-6.926,6.984-6.926,2.525,0,4.037,.842,5.281,2.066l-1.875,2.162c-1.033-.938-2.086-1.512-3.426-1.512-2.258,0-3.884,1.875-3.884,4.172v.037c0,2.297,1.588,4.211,3.884,4.211,1.531,0,2.469-.613,3.521-1.57l1.875,1.895c-1.378,1.474-2.908,2.393-5.492,2.393-3.941,0-6.869-3.043-6.869-6.889Z"/>
    <path d="M404.911,294.052h-4.076v-2.717h11.099v2.717h-4.076v10.677h-2.946v-10.677Z"/>
    <path d="M415.606,291.335h2.947v13.394h-2.947v-13.394Z"/>
    <path d="M422.226,298.071v-.039c0-3.807,3.004-6.926,7.138-6.926s7.099,3.08,7.099,6.889v.037c0,3.809-3.004,6.928-7.137,6.928s-7.1-3.081-7.1-6.889Zm11.155,0v-.039c0-2.295-1.684-4.209-4.056-4.209s-4.019,1.875-4.019,4.172v.037c0,2.297,1.684,4.211,4.057,4.211s4.018-1.876,4.018-4.172Z"/>
    <path d="M439.504,291.335h2.717l6.276,8.247v-8.247h2.908v13.394h-2.507l-6.486-8.514v8.514h-2.908v-13.394Z"/>
  </g>
  <polygon points="27.779 304.729 23.527 304.729 23.527 246.714 24.589 246.1 450.34 0 452.467 3.682 27.779 249.167 27.779 304.729"/>
  <g>
    <polygon points="446.269 81.381 437.647 81.381 437.64 56.6 433.947 56.6 433.954 81.351 425.314 81.351 425.306 62.033 421.646 62.033 421.646 87.559 425.303 87.559 425.314 84.979 446.269 84.979 446.269 87.565 449.955 87.565 449.956 62.033 446.262 62.033 446.269 81.381"/>
    <g>
      <polygon points="420.197 106.962 433.954 106.962 433.954 132.488 437.647 132.488 437.647 114.849 445.723 121.308 448.219 118.651 437.647 110.494 437.647 106.962 451.404 106.962 451.404 103.368 420.197 103.368 420.197 106.962"/>
      <polygon points="437.614 148.979 448.929 148.979 448.929 145.386 422.672 145.386 422.672 148.979 433.853 148.979 433.853 168.321 420.197 168.321 420.197 171.914 451.404 171.914 451.404 168.321 437.614 168.321 437.614 148.979"/>
      <path d="M449.956,232.794v-3.323h-10.352v-3.355s-3.59,0-3.59,0l-.002,3.355h-12.884l.01,.577c0,.058,.103,5.729,.103,8.488,0,8.972-1.698,12.944-3.591,16.543l-.271,.515,3.417,1.686,.25-.513c2.628-5.403,3.853-11.399,3.853-18.871v-5.102h9.214v11.109h-8.057l.002,13.183h3.493l-.002-1.289h13.773v1.289h3.592v-13.183h-9.309v-3.855h10.353v-3.391h-10.353v-3.852l10.353-.012Zm-18.41,19.645v-5.211h13.774v5.211h-13.774Z"/>
      <path d="M450.078,202.024l.387,.147,1.437-3.124-.474-.153c-2.559-.832-3.877-1.511-5.435-2.538,1.275-1.641,1.988-3.036,2.584-5.046h2.549v-3.009h-10.471c.304-.541,.71-1.294,1.141-2.207l.231-.49-3.349-.817-.136,.372c-.495,1.353-2.137,4.484-5.153,7.645l-.379,.397,2.94,1.796,.247-.252c.468-.479,1.436-1.64,2.343-2.943,.63,1.309,1.606,2.998,3.042,4.697-1.645,1.271-3.672,2.275-6.337,3.141l-.147,.048c.383-.56,.784-1.165,1.246-1.884l.185-.288-1.172-1.271h-5.428l1.111-1.297-.333-.288s-.311-.269-.907-.792c2.241-2.041,3.582-3.469,5.09-5.192l.225-.257-1.097-1.623h-12.802v3.008h8.496c-1.02,1.01-1.848,1.804-2.438,2.336-.892-.704-1.92-1.533-1.921-1.533l-.368-.297-1.756,2.493,.364,.254c.93,.652,2.528,2.003,3.798,3.188h-6.176v3.009h4.745c-2.211,4.899-4.337,7.795-5.959,9.783l-.301,.37,2.75,1.924,.26-.321c1.408-1.745,2.634-3.609,3.961-6.04l.002,6.937c0,.349,0,.601-.702,.601-.506,0-1.755,.01-1.755,.01l-.506,.005,.479,3.398h1.176c2.819,0,4.451-.492,4.451-3.003l-.002-10.883,2.502,1.465,.237-.314c.895-1.186,1.576-2.096,2.312-3.158l1.459,2.804,.839-.392c1.192-.555,2.351-1.097,3.478-1.716v.044c-.033,.947-.067,2.012-.301,3.438h-7.911v3.008h7.191c-1.301,3.069-3.2,4.906-6.42,6.255l-.609,.255,2.608,2.607,.283-.136c4.699-2.254,6.515-5.938,7.539-8.981h4.535c-.119,1.733-.348,3.312-.51,3.854-.369,1.257-1.739,1.354-2.15,1.354h-2.367l.344,3.483,.857-.007c5.239-.039,6.639-.492,7.366-11.22l.032-.474h-7.42c.103-.551,.206-1.154,.305-1.738,.112-.66,.202-1.243,.202-1.243l.067-.433-2.91-.484c.797-.472,1.576-.994,2.337-1.603,1.592,1.185,3.837,2.355,6.371,3.319Zm-20.266-.42v-2.351s1.776,0,1.776,0c-.537,.768-.958,1.327-1.69,2.243l-.086,.107Zm15.348-10.294c-.57,1.54-1.096,2.368-1.493,2.894-.453-.493-1.097-1.315-1.889-2.894h3.382Z"/>
    </g>
  </g>
  <rect x="11.232" y="226.645" width="4.252" height="28.394" transform="translate(-201.896 131.987) rotate(-59.999)"/>
</svg>