<?xml version="1.0" encoding="UTF-8"?>
<svg id="f" data-name="logo" xmlns="http://www.w3.org/2000/svg" width="354.65" height="385.447" viewBox="0 0 354.65 385.447">
  <g>
    <polygon points="27.135 209.737 18.513 209.737 18.505 184.956 14.812 184.956 14.819 209.707 6.18 209.707 6.172 190.388 2.512 190.388 2.511 215.915 6.169 215.915 6.18 213.334 27.135 213.334 27.135 215.92 30.82 215.92 30.821 190.388 27.127 190.388 27.135 209.737"/>
    <g>
      <polygon points="1.063 235.317 14.819 235.317 14.819 260.844 18.513 260.844 18.513 243.204 26.589 249.663 29.084 247.007 18.513 238.85 18.513 235.317 32.269 235.317 32.269 231.724 1.063 231.724 1.063 235.317"/>
      <polygon points="18.479 277.334 29.795 277.334 29.795 273.741 3.537 273.741 3.537 277.334 14.719 277.334 14.719 296.676 1.063 296.676 1.063 300.27 32.269 300.27 32.269 296.676 18.479 296.676 18.479 277.334"/>
      <path d="M30.821,361.149v-3.323h-10.352v-3.355s-3.59,0-3.59,0l-.002,3.355H3.993l.01,.577c0,.058,.103,5.729,.103,8.488,0,8.972-1.698,12.944-3.591,16.543l-.271,.515,3.417,1.686,.25-.513c2.628-5.403,3.853-11.399,3.853-18.871v-5.102h9.214v11.109H8.92l.002,13.183h3.493l-.002-1.289h13.773v1.289h3.592v-13.183h-9.309v-3.855h10.353v-3.391h-10.353v-3.852l10.353-.012Zm-18.41,19.645v-5.211h13.774v5.211H12.411Z"/>
      <path d="M30.944,330.38l.387,.147,1.437-3.124-.474-.153c-2.559-.832-3.877-1.511-5.435-2.538,1.275-1.641,1.988-3.036,2.584-5.046h2.549v-3.009h-10.471c.304-.541,.71-1.294,1.141-2.207l.231-.49-3.349-.817-.136,.372c-.495,1.353-2.137,4.484-5.153,7.645l-.379,.397,2.94,1.796,.247-.252c.468-.479,1.436-1.64,2.343-2.943,.63,1.309,1.606,2.998,3.042,4.697-1.645,1.271-3.672,2.275-6.337,3.141l-.147,.048c.383-.56,.784-1.165,1.246-1.884l.185-.288-1.172-1.271h-5.428l1.111-1.297-.333-.288s-.311-.269-.907-.792c2.241-2.041,3.582-3.469,5.09-5.192l.225-.257-1.097-1.623H2.08v3.008H10.576c-1.02,1.01-1.848,1.804-2.438,2.336-.892-.704-1.92-1.533-1.92-1.533l-.368-.297-1.756,2.493,.364,.254c.93,.652,2.528,2.003,3.798,3.188H2.08v3.009H6.825c-2.211,4.899-4.337,7.795-5.959,9.783l-.301,.37,2.75,1.924,.26-.321c1.408-1.745,2.634-3.609,3.961-6.04l.002,6.937c0,.349,0,.601-.702,.601-.506,0-1.755,.01-1.755,.01l-.506,.005,.479,3.398h1.176c2.819,0,4.451-.492,4.451-3.003l-.002-10.883,2.502,1.465,.237-.314c.895-1.186,1.576-2.096,2.312-3.158l1.459,2.804,.839-.392c1.192-.555,2.351-1.097,3.478-1.716v.044c-.033,.947-.067,2.012-.301,3.438h-7.911v3.008h7.191c-1.301,3.069-3.2,4.906-6.42,6.255l-.609,.255,2.608,2.607,.283-.136c4.699-2.254,6.515-5.938,7.539-8.981h4.535c-.119,1.733-.348,3.312-.51,3.854-.369,1.257-1.739,1.354-2.15,1.354h-2.367l.344,3.483,.857-.007c5.239-.039,6.639-.492,7.366-11.22l.032-.474h-7.42c.103-.551,.206-1.154,.305-1.738,.112-.66,.202-1.243,.202-1.243l.067-.433-2.91-.484c.797-.472,1.576-.994,2.337-1.603,1.592,1.185,3.837,2.355,6.371,3.319Zm-20.266-.42v-2.351s1.776,0,1.776,0c-.537,.768-.958,1.327-1.69,2.243l-.086,.107Zm15.348-10.294c-.57,1.54-1.096,2.368-1.493,2.894-.453-.493-1.097-1.315-1.889-2.894h3.382Z"/>
    </g>
  </g>
  <polygon points="67.657 385.441 63.405 385.441 63.405 169.379 0 132.772 2.126 129.089 67.657 166.924 67.657 385.441"/>
  <rect x="43.25" y="82.87" width="332.619" height="4.252" transform="translate(-14.424 116.159) rotate(-29.998)"/>
  <g>
    <path d="M103.347,356.248l-5.147-8.113h3.444l3.195,5.376,3.253-5.376h3.349l-5.146,8.056v5.338h-2.947v-5.281Z"/>
    <path d="M116.913,348.04h2.717l5.74,13.49h-3.081l-1.225-3.004h-5.663l-1.225,3.004h-3.005l5.741-13.49Zm3.1,7.883l-1.779-4.344-1.78,4.344h3.56Z"/>
    <path d="M128.526,348.135h3.177l3.521,5.664,3.521-5.664h3.177v13.394h-2.928v-8.745l-3.77,5.721h-.076l-3.731-5.664v8.687h-2.89v-13.394Z"/>
    <path d="M150.817,348.04h2.717l5.741,13.49h-3.081l-1.225-3.004h-5.664l-1.225,3.004h-3.004l5.74-13.49Zm3.1,7.883l-1.779-4.344-1.779,4.344h3.559Z"/>
    <path d="M161.608,359.578l1.741-2.086c1.206,.995,2.469,1.626,3.999,1.626,1.206,0,1.933-.478,1.933-1.263v-.038c0-.747-.459-1.129-2.698-1.703-2.697-.689-4.438-1.435-4.438-4.095v-.039c0-2.43,1.951-4.037,4.688-4.037,1.952,0,3.616,.612,4.976,1.703l-1.531,2.219c-1.187-.823-2.354-1.32-3.482-1.32s-1.722,.517-1.722,1.167v.038c0,.88,.573,1.167,2.889,1.76,2.718,.708,4.248,1.684,4.248,4.019v.038c0,2.66-2.028,4.152-4.918,4.152-2.027,0-4.075-.708-5.683-2.143Z"/>
    <path d="M176.403,348.135h2.946v5.3h5.435v-5.3h2.946v13.394h-2.946v-5.377h-5.435v5.377h-2.946v-13.394Z"/>
    <path d="M192.693,348.135h2.946v13.394h-2.946v-13.394Z"/>
    <path d="M203.368,350.852h-4.076v-2.717h11.099v2.717h-4.076v10.677h-2.946v-10.677Z"/>
    <path d="M216.704,348.04h2.717l5.741,13.49h-3.081l-1.225-3.004h-5.664l-1.225,3.004h-3.004l5.74-13.49Zm3.1,7.883l-1.779-4.344-1.779,4.344h3.559Z"/>
    <path d="M99.31,372.053h2.946v5.3h5.435v-5.3h2.946v13.394h-2.946v-5.377h-5.435v5.377h-2.946v-13.394Z"/>
    <path d="M114.291,378.788v-.039c0-3.808,3.004-6.926,7.137-6.926s7.099,3.081,7.099,6.888v.038c0,3.808-3.004,6.927-7.137,6.927s-7.099-3.081-7.099-6.888Zm11.155,0v-.039c0-2.296-1.684-4.209-4.057-4.209s-4.019,1.875-4.019,4.171v.038c0,2.296,1.685,4.21,4.057,4.21s4.019-1.875,4.019-4.171Z"/>
    <path d="M132.143,379.707v-7.654h2.947v7.577c0,2.181,1.09,3.31,2.889,3.31s2.89-1.09,2.89-3.214v-7.673h2.946v7.558c0,4.057-2.276,6.046-5.874,6.046s-5.798-2.009-5.798-5.951Z"/>
    <path d="M147.259,383.495l1.741-2.086c1.205,.995,2.468,1.626,3.999,1.626,1.205,0,1.933-.478,1.933-1.263v-.038c0-.747-.46-1.129-2.698-1.703-2.698-.689-4.439-1.435-4.439-4.095v-.039c0-2.43,1.952-4.037,4.688-4.037,1.951,0,3.616,.612,4.975,1.703l-1.53,2.219c-1.187-.823-2.354-1.32-3.482-1.32s-1.723,.517-1.723,1.167v.038c0,.88,.574,1.167,2.89,1.76,2.717,.708,4.248,1.684,4.248,4.019v.038c0,2.66-2.028,4.152-4.918,4.152-2.028,0-4.076-.708-5.683-2.143Z"/>
    <path d="M161.857,372.053h10.104v2.621h-7.176v2.717h6.314v2.622h-6.314v2.812h7.271v2.622h-10.199v-13.394Z"/>
    <path d="M181.737,378.788v-.039c0-3.808,2.87-6.926,6.984-6.926,2.525,0,4.037,.842,5.281,2.066l-1.875,2.162c-1.033-.938-2.086-1.512-3.426-1.512-2.258,0-3.884,1.875-3.884,4.171v.038c0,2.296,1.588,4.21,3.884,4.21,1.531,0,2.469-.612,3.521-1.569l1.875,1.895c-1.378,1.473-2.908,2.392-5.492,2.392-3.941,0-6.869-3.042-6.869-6.888Z"/>
    <path d="M196.681,378.788v-.039c0-3.808,3.004-6.926,7.138-6.926s7.099,3.081,7.099,6.888v.038c0,3.808-3.004,6.927-7.138,6.927s-7.099-3.081-7.099-6.888Zm11.155,0v-.039c0-2.296-1.684-4.209-4.057-4.209s-4.018,1.875-4.018,4.171v.038c0,2.296,1.684,4.21,4.057,4.21s4.018-1.875,4.018-4.171Z"/>
    <path d="M214.341,372.053h2.717l6.276,8.247v-8.247h2.908v13.394h-2.506l-6.487-8.515v8.515h-2.908v-13.394Z"/>
    <path d="M229.993,383.495l1.741-2.086c1.205,.995,2.468,1.626,3.999,1.626,1.205,0,1.933-.478,1.933-1.263v-.038c0-.747-.46-1.129-2.698-1.703-2.698-.689-4.439-1.435-4.439-4.095v-.039c0-2.43,1.952-4.037,4.688-4.037,1.951,0,3.616,.612,4.975,1.703l-1.53,2.219c-1.187-.823-2.354-1.32-3.482-1.32s-1.723,.517-1.723,1.167v.038c0,.88,.574,1.167,2.89,1.76,2.717,.708,4.248,1.684,4.248,4.019v.038c0,2.66-2.028,4.152-4.918,4.152-2.028,0-4.076-.708-5.683-2.143Z"/>
    <path d="M247.76,374.77h-4.075v-2.717h11.098v2.717h-4.075v10.677h-2.947v-10.677Z"/>
    <path d="M258.398,372.053h6.123c1.703,0,3.023,.478,3.903,1.358,.746,.746,1.148,1.799,1.148,3.062v.038c0,2.163-1.167,3.521-2.87,4.152l3.271,4.784h-3.444l-2.87-4.286h-2.314v4.286h-2.947v-13.394Zm5.932,6.506c1.436,0,2.258-.766,2.258-1.895v-.038c0-1.263-.88-1.914-2.315-1.914h-2.927v3.846h2.984Z"/>
    <path d="M273.208,379.707v-7.654h2.946v7.577c0,2.181,1.091,3.31,2.89,3.31s2.889-1.09,2.889-3.214v-7.673h2.947v7.558c0,4.057-2.277,6.046-5.875,6.046s-5.797-2.009-5.797-5.951Z"/>
    <path d="M288.094,378.788v-.039c0-3.808,2.87-6.926,6.984-6.926,2.525,0,4.037,.842,5.281,2.066l-1.875,2.162c-1.033-.938-2.086-1.512-3.426-1.512-2.258,0-3.884,1.875-3.884,4.171v.038c0,2.296,1.588,4.21,3.884,4.21,1.531,0,2.469-.612,3.521-1.569l1.875,1.895c-1.378,1.473-2.908,2.392-5.492,2.392-3.941,0-6.869-3.042-6.869-6.888Z"/>
    <path d="M307.094,374.77h-4.076v-2.717h11.099v2.717h-4.076v10.677h-2.946v-10.677Z"/>
    <path d="M317.789,372.053h2.947v13.394h-2.947v-13.394Z"/>
    <path d="M324.409,378.788v-.039c0-3.808,3.004-6.926,7.138-6.926s7.099,3.081,7.099,6.888v.038c0,3.808-3.004,6.927-7.138,6.927s-7.099-3.081-7.099-6.888Zm11.155,0v-.039c0-2.296-1.684-4.209-4.057-4.209s-4.018,1.875-4.018,4.171v.038c0,2.296,1.684,4.21,4.057,4.21s4.018-1.875,4.018-4.171Z"/>
    <path d="M341.688,372.053h2.717l6.276,8.247v-8.247h2.908v13.394h-2.507l-6.486-8.515v8.515h-2.908v-13.394Z"/>
  </g>
</svg>